<svg version="1.1" id="Layer_1" xmlns="http://www.w3.org/2000/svg" xmlns:xlink="http://www.w3.org/1999/xlink" x="0px" y="0px"
	 width="100%" viewBox="0 0 302 116" enable-background="new 0 0 302 116" xml:space="preserve">
<path fill="#FFFFFF" opacity="1.000000" stroke="none" 
	d="
M1.000000,72.416664 
	C3.285579,69.839371 5.866110,67.913498 7.805293,65.477158 
	C15.879825,55.332539 23.773186,45.043423 31.695707,34.778530 
	C32.522011,33.707924 33.101482,32.446812 33.957676,31.000000 
	C22.906523,31.000000 12.421919,31.000000 1.468657,31.000000 
	C1.000000,29.933331 1.000000,28.866661 1.000000,27.399996 
	C14.129290,27.000000 27.258579,27.000000 42.099430,27.000000 
	C40.116657,30.335207 38.858299,33.037132 37.082951,35.340595 
	C27.523680,47.743462 17.835995,60.047356 7.836917,72.840508 
	C19.392839,72.840508 30.289019,72.840508 41.587990,72.840508 
	C41.742664,74.179794 41.878128,75.352737 42.068371,77.000000 
	C28.467102,77.000000 15.202209,77.000000 1.468657,77.000000 
	C1.000000,75.611107 1.000000,74.222221 1.000000,72.416664 
z"/>
<path fill="#0163F9" opacity="1.000000" stroke="none" 
	d="
M217.954788,12.113199 
	C216.317764,10.958639 214.680740,9.804082 213.288589,8.822228 
	C210.944611,10.055564 208.343414,12.309150 205.588959,12.515349 
	C204.122574,12.625124 202.390945,9.191813 200.399902,6.757250 
	C200.013824,4.437845 200.006912,2.718922 200.000000,1.000000 
	C208.354233,1.000000 216.708466,1.000000 225.526276,1.369696 
	C225.183243,3.226754 224.573120,4.873437 223.525497,6.165345 
	C221.818939,8.269865 219.826553,10.142631 217.954788,12.113199 
z"/>
<path fill="#8FBAFD" opacity="1.000000" stroke="none" 
	d="
M224.041412,106.882675 
	C224.513260,107.813049 224.985123,108.743416 225.675568,110.104790 
	C227.992767,104.559578 231.842545,103.656746 236.625046,106.747574 
	C233.997406,110.489815 231.498703,113.744911 229.000000,117.000000 
	C224.975449,117.000000 220.950912,117.000000 216.496841,116.655533 
	C218.725357,113.168266 221.383377,110.025467 224.041412,106.882675 
z"/>
<path fill="#458EFC" opacity="1.000000" stroke="none" 
	d="
M62.375000,117.000000 
	C62.000000,111.773979 62.000000,106.547951 62.000000,101.321930 
	C62.374397,101.072235 62.748791,100.822540 63.123188,100.572845 
	C65.877502,103.554054 68.631813,106.535255 71.436546,109.571037 
	C73.290024,106.997475 70.152603,102.844742 74.573318,100.222031 
	C74.573318,106.094711 74.573318,111.114578 74.786659,116.567223 
	C74.250000,117.000000 73.500000,117.000000 72.657753,116.712646 
	C70.275612,113.692184 67.985718,110.959068 65.000000,107.395447 
	C65.000000,111.513817 65.000000,114.256905 65.000000,117.000000 
	C64.250000,117.000000 63.500000,117.000000 62.375000,117.000000 
z"/>
<path fill="#FFFFFF" opacity="1.000000" stroke="none" 
	d="
M199.541931,1.000000 
	C200.006912,2.718922 200.013824,4.437845 200.092926,6.579635 
	C198.630676,10.635762 197.148911,14.460361 191.955688,12.458674 
	C187.331085,10.676140 186.509293,6.674742 189.300476,1.343412 
	C192.361282,1.000000 195.722580,1.000000 199.541931,1.000000 
z"/>
<path fill="#458EFC" opacity="1.000000" stroke="none" 
	d="
M99.375000,117.000000 
	C99.000000,113.133812 99.000000,109.267624 99.000000,105.007996 
	C104.042160,105.007996 108.659416,104.718979 113.199699,105.183037 
	C114.572472,105.323357 116.487755,107.383064 116.814774,108.860184 
	C117.325150,111.165573 116.692657,113.723991 116.772202,116.587601 
	C116.555557,117.000000 116.111107,117.000000 115.584824,116.611694 
	C115.326851,114.614807 115.532410,112.823387 114.872833,111.446350 
	C114.136131,109.908295 112.614227,108.746346 111.434059,107.420700 
	C110.956039,107.743843 110.478020,108.066978 110.000000,108.390121 
	C110.000000,111.260078 110.000000,114.130043 110.000000,117.000000 
	C109.250000,117.000000 108.500000,117.000000 107.629219,116.614655 
	C107.337791,114.783836 107.454697,113.219421 106.919250,111.924820 
	C106.330925,110.502380 105.141960,109.328369 104.214691,108.046112 
	C103.476433,109.297523 102.392174,110.471024 102.088364,111.820251 
	C101.716934,113.469841 101.999969,115.266777 102.000000,117.000000 
	C101.250000,117.000000 100.500000,117.000000 99.375000,117.000000 
z"/>
<path fill="#9EC4FD" opacity="1.000000" stroke="none" 
	d="
M229.458069,117.000000 
	C231.498703,113.744911 233.997406,110.489815 236.805862,107.091042 
	C237.572327,107.867538 238.029022,108.787712 237.853317,108.433685 
	C241.094604,107.243935 244.134308,106.128181 247.543701,105.423935 
	C246.835556,107.182640 245.681320,108.476585 244.697159,109.889023 
	C243.073624,112.219063 241.559967,114.625671 240.000000,117.000000 
	C236.638718,117.000000 233.277420,117.000000 229.458069,117.000000 
z"/>
<path fill="#80B1FC" opacity="1.000000" stroke="none" 
	d="
M223.862442,106.544754 
	C221.383377,110.025467 218.725357,113.168266 216.033661,116.655533 
	C212.638718,117.000000 209.277420,117.000000 205.505661,116.656616 
	C207.435410,114.193436 209.775635,112.073631 212.115860,109.953827 
	C212.604767,109.910103 213.385849,110.046173 213.539673,109.796234 
	C216.974899,104.214096 217.887497,103.874680 223.862442,106.544754 
z"/>
<path fill="#468FFC" opacity="1.000000" stroke="none" 
	d="
M147.449982,117.000000 
	C146.031586,114.836571 144.109039,112.588310 144.292297,110.527283 
	C144.680450,106.162079 147.578430,103.940018 151.750687,104.978401 
	C152.924438,103.478775 153.869324,102.271553 154.814224,101.064323 
	C155.208374,102.480026 155.917648,103.891907 155.934891,105.312187 
	C155.978668,108.917969 155.712448,112.527512 155.785187,116.567780 
	C153.299988,117.000000 150.599976,117.000000 147.449982,117.000000 
M150.625610,113.983368 
	C151.398468,112.643623 152.371292,111.364006 152.804749,109.922234 
	C152.914230,109.558075 151.358826,108.282852 150.461746,108.150658 
	C149.680710,108.035553 147.954559,109.156479 148.010345,109.363396 
	C148.436401,110.943649 149.196884,112.433731 150.625610,113.983368 
z"/>
<path fill="#468FFC" opacity="1.000000" stroke="none" 
	d="
M166.444168,117.000000 
	C165.633179,116.121422 164.973221,115.248955 164.954758,114.363113 
	C164.900558,111.763893 164.178284,108.437477 165.479462,106.773560 
	C166.626602,105.306602 170.406006,104.871025 172.526993,105.543839 
	C174.008316,106.013741 174.652832,109.121513 176.168060,111.992714 
	C172.246353,111.992714 169.873444,111.992714 167.500519,111.992714 
	C167.487762,112.506660 167.475006,113.020607 167.462250,113.534554 
	C168.968384,113.534554 170.477417,113.478691 171.979507,113.556717 
	C172.805023,113.599602 173.618820,113.867973 174.437912,114.034683 
	C174.104797,114.835388 173.771667,115.636101 173.719269,116.718407 
	C171.629440,117.000000 169.258896,117.000000 166.444168,117.000000 
z"/>
<path fill="#458EFC" opacity="1.000000" stroke="none" 
	d="
M120.449982,117.000000 
	C118.274040,110.990021 118.274040,110.990021 125.459702,108.611252 
	C125.292236,108.416779 125.161140,108.110695 124.976456,108.073944 
	C123.187477,107.717995 121.389503,107.407242 119.594101,107.083588 
	C120.774635,106.389893 121.888054,105.294662 123.149300,105.083893 
	C126.008400,104.606094 128.646561,105.303131 128.921188,108.779701 
	C129.113922,111.219612 128.692169,113.708054 128.772400,116.587418 
	C126.299988,117.000000 123.599968,117.000000 120.449982,117.000000 
z"/>
<path fill="#0D6AFA" opacity="1.000000" stroke="none" 
	d="
M218.132843,12.427422 
	C219.826553,10.142631 221.818939,8.269865 223.525497,6.165345 
	C224.573120,4.873437 225.183243,3.226754 225.994919,1.369696 
	C229.361282,1.000000 232.722580,1.000000 236.541931,0.999999 
	C236.940109,1.411471 236.880234,1.822943 236.621368,2.635455 
	C233.578964,5.373569 230.735550,7.710641 227.892120,10.047710 
	C227.306290,9.367215 226.720459,8.686724 226.832306,8.816650 
	C223.702560,10.258226 221.006729,11.499934 218.132843,12.427422 
z"/>
<path fill="#468FFC" opacity="1.000000" stroke="none" 
	d="
M79.444168,117.000000 
	C78.343346,115.557587 76.942871,113.971756 77.187462,112.703102 
	C77.671898,110.190506 78.525482,107.259628 80.282066,105.663010 
	C81.357376,104.685623 84.890518,105.162506 86.432022,106.247581 
	C88.616249,107.785072 90.186584,110.429985 88.161552,113.463837 
	C87.535637,114.401558 86.999161,115.398994 86.710876,116.684540 
	C84.629440,117.000000 82.258888,117.000000 79.444168,117.000000 
M83.893951,113.579002 
	C84.425636,112.068405 84.957321,110.557808 85.489006,109.047211 
	C84.284508,108.720169 83.001183,107.989784 81.902565,108.204491 
	C81.139771,108.353554 79.918472,110.191071 80.140884,110.599350 
	C80.841393,111.885246 82.126442,112.852699 83.893951,113.579002 
z"/>
<path fill="#74AAFC" opacity="1.000000" stroke="none" 
	d="
M212.066589,109.563065 
	C209.775635,112.073631 207.435410,114.193436 205.047592,116.656616 
	C204.555557,117.000000 204.111099,117.000000 203.333328,117.000000 
	C202.518448,116.017365 201.710571,115.063400 201.621201,114.046295 
	C201.415466,111.705246 200.784546,108.883736 201.809525,107.118492 
	C202.609421,105.740898 205.779999,104.897430 207.642654,105.232239 
	C209.283920,105.527245 210.572830,107.782608 212.066589,109.563065 
z"/>
<path fill="#458EFC" opacity="1.000000" stroke="none" 
	d="
M132.375000,117.000000 
	C132.000366,115.085800 132.000885,113.171593 132.001053,111.257393 
	C132.001236,109.322556 132.001083,107.387711 132.001083,105.516800 
	C142.414490,104.087013 144.117706,105.893295 142.766663,116.593292 
	C142.250000,117.000000 141.500000,117.000000 140.618118,116.603882 
	C140.322037,114.416222 140.446243,112.528519 139.892258,110.866936 
	C139.522949,109.759293 138.186981,108.973946 137.283646,108.044357 
	C136.525696,108.951416 135.284424,109.775589 135.111679,110.782990 
	C134.765411,112.802338 135.003265,114.921837 135.000000,117.000000 
	C134.250000,117.000000 133.500000,117.000000 132.375000,117.000000 
z"/>
<path fill="#A8CAFD" opacity="1.000000" stroke="none" 
	d="
M240.449982,117.000000 
	C241.559967,114.625671 243.073624,112.219063 244.697159,109.889023 
	C245.681320,108.476585 246.835556,107.182640 247.954758,105.492233 
	C252.150543,108.317398 252.281235,111.788902 248.708878,116.674011 
	C246.299988,117.000000 243.599976,117.000000 240.449982,117.000000 
z"/>
<path fill="#3D88FB" opacity="1.000000" stroke="none" 
	d="
M266.875153,11.048936 
	C263.720154,7.656386 264.578918,4.562909 267.288513,1.314420 
	C269.370575,1.000000 271.741119,1.000000 274.555847,1.000000 
	C275.000000,1.000000 275.034698,1.427389 275.025452,2.018874 
	C272.302490,5.423218 269.588837,8.236077 266.875153,11.048936 
z"/>
<path fill="#4C91FB" opacity="1.000000" stroke="none" 
	d="
M288.550018,1.000000 
	C288.999878,1.712336 288.999725,2.424672 288.708130,3.588134 
	C285.570801,6.376412 282.724915,8.713563 279.879059,11.050713 
	C276.753876,7.661376 277.527649,4.561330 280.289001,1.315102 
	C282.700012,1.000000 285.400024,1.000000 288.550018,1.000000 
z"/>
<path fill="#9EC4FD" opacity="1.000000" stroke="none" 
	d="
M292.955414,63.111229 
	C290.377228,60.578644 290.002594,57.338169 292.174347,54.880054 
	C295.088287,51.581890 298.879456,52.666557 302.667053,54.313965 
	C303.000000,54.444447 303.000000,54.888889 302.635071,55.682266 
	C299.165222,58.391209 296.060303,60.751217 292.955414,63.111229 
z"/>
<path fill="#C7DCFE" opacity="1.000000" stroke="none" 
	d="
M303.000000,88.562500 
	C299.387726,89.770081 295.714447,93.004768 292.537231,88.325592 
	C295.566040,85.334282 298.284576,82.750824 301.003082,80.167358 
	C301.461121,80.735947 301.919128,81.304535 302.688568,81.936562 
	C303.000000,84.041664 303.000000,86.083336 303.000000,88.562500 
z"/>
<path fill="#B7D3FE" opacity="1.000000" stroke="none" 
	d="
M303.000000,75.562500 
	C299.391388,76.741554 295.719513,80.030441 292.557007,75.362122 
	C295.586151,72.381584 298.294281,69.771744 301.002441,67.161896 
	C301.460571,67.730843 301.918671,68.299789 302.688385,68.934372 
	C303.000000,71.041664 303.000000,73.083336 303.000000,75.562500 
z"/>
<path fill="#85B4FD" opacity="1.000000" stroke="none" 
	d="
M303.000000,36.562500 
	C299.394287,37.694775 295.721527,41.050064 292.558899,36.360062 
	C295.584137,33.380657 298.292633,30.770155 301.001160,28.159657 
	C301.461975,28.726482 301.922821,29.293303 302.691833,29.930061 
	C303.000000,32.041668 303.000000,34.083332 303.000000,36.562500 
z"/>
<path fill="#74AAFC" opacity="1.000000" stroke="none" 
	d="
M303.000000,23.562500 
	C299.390656,24.765554 295.718628,27.998537 292.554749,23.358377 
	C295.582031,20.382717 298.291901,17.775192 301.001740,15.167667 
	C301.464081,15.731528 301.926453,16.295387 302.694397,16.929623 
	C303.000000,19.041666 303.000000,21.083334 303.000000,23.562500 
z"/>
<path fill="#96BFFD" opacity="1.000000" stroke="none" 
	d="
M303.000000,49.562500 
	C299.750183,50.392231 296.720734,53.749325 293.357361,50.245239 
	C295.999634,46.898472 298.501709,44.033604 301.003784,41.168739 
	C301.463745,41.734844 301.923706,42.300949 302.691833,42.933525 
	C303.000000,45.041668 303.000000,47.083332 303.000000,49.562500 
z"/>
<path fill="#D7E7FE" opacity="1.000000" stroke="none" 
	d="
M301.001770,93.160728 
	C301.458649,93.731445 301.915527,94.302170 302.686218,94.936447 
	C303.000000,97.041664 303.000000,99.083336 303.000000,101.562500 
	C299.749908,102.402840 296.719177,105.737030 293.357239,102.247620 
	C296.000854,98.895554 298.501312,96.028145 301.001770,93.160728 
z"/>
<path fill="#A6C9FD" opacity="1.000000" stroke="none" 
	d="
M293.125916,63.443863 
	C296.060303,60.751217 299.165222,58.391209 302.635071,56.015598 
	C303.000000,58.041668 303.000000,60.083332 303.000000,62.562500 
	C299.776398,63.395531 296.788300,66.733994 293.125916,63.443863 
z"/>
<path fill="#E8F2FF" opacity="1.000000" stroke="none" 
	d="
M295.494751,117.000000 
	C294.370453,116.547394 293.740906,116.094788 293.345612,115.300598 
	C296.066040,112.268272 298.552216,109.577530 301.038391,106.886795 
	C301.510162,107.116325 301.981903,107.345848 302.726837,107.287689 
	C303.000000,110.240097 303.000000,113.480202 303.000000,117.000000 
	C300.666840,117.000000 298.328156,117.000000 295.494751,117.000000 
z"/>
<path fill="#458EFC" opacity="1.000000" stroke="none" 
	d="
M91.375000,117.000000 
	C91.000000,113.130486 91.000000,109.260979 91.000000,105.201363 
	C93.531448,105.201363 95.609673,105.201363 97.138229,105.201363 
	C95.916550,108.914169 94.717056,112.559540 93.758789,116.602448 
	C93.250000,117.000000 92.500000,117.000000 91.375000,117.000000 
z"/>
<path fill="#458EFC" opacity="1.000000" stroke="none" 
	d="
M159.375000,117.000000 
	C159.001434,113.756363 158.925598,110.509476 159.061890,107.271515 
	C159.093552,106.519356 159.847931,105.797623 160.269745,105.061874 
	C160.844757,105.809219 161.894318,106.546242 161.910843,107.305733 
	C161.974854,110.248596 161.709991,113.198601 161.783798,116.572975 
	C161.250000,117.000000 160.500000,117.000000 159.375000,117.000000 
z"/>
<path fill="#FFFFFF" opacity="1.000000" stroke="none" 
	d="
M139.583374,49.906677 
	C144.021347,39.930355 153.778305,37.759251 162.494400,40.257557 
	C169.181152,42.174194 175.898911,51.246696 173.639236,59.884819 
	C163.653488,59.884819 153.568512,59.884819 143.524582,59.884819 
	C142.966568,65.134361 145.388504,69.219482 150.241180,71.704506 
	C155.744843,74.522903 164.537781,73.913254 169.555328,68.011559 
	C170.437912,68.967567 171.310684,69.912956 172.148529,70.820503 
	C165.811523,78.541039 156.920532,79.729385 147.599182,75.277702 
	C139.172806,71.253448 136.636963,59.713493 138.518158,52.966080 
	C138.776627,52.039085 139.031311,51.111042 139.583374,49.906677 
M153.478333,43.997356 
	C147.309494,45.417160 144.067032,49.081062 143.167953,55.779514 
	C152.049728,55.779514 160.909760,55.779514 170.230011,55.779514 
	C169.012161,53.148441 168.115585,50.777390 166.865021,48.610657 
	C164.953232,45.298355 158.290115,42.955132 153.478333,43.997356 
z"/>
<path fill="#FFFFFF" opacity="1.000000" stroke="none" 
	d="
M83.393738,53.870533 
	C84.935486,67.215935 80.519539,74.171692 68.724266,77.003586 
	C53.207596,80.728935 43.984917,66.891670 46.228985,54.714661 
	C47.543972,47.579113 51.798557,41.977962 59.109043,40.122818 
	C67.635017,37.959225 75.349838,39.828819 80.750328,47.379360 
	C81.990227,49.112888 82.332100,51.488728 83.393738,53.870533 
M57.616768,45.888023 
	C50.497978,48.757679 49.658958,58.719933 51.920052,64.514397 
	C53.942501,69.697289 60.930698,74.834366 65.338783,73.815018 
	C70.434456,72.636650 75.939445,71.159904 77.866905,65.237114 
	C79.919487,58.929878 80.088066,52.563301 74.960503,47.589661 
	C70.129166,42.903343 64.198296,42.908257 57.616768,45.888023 
z"/>
<path fill="#FFFFFF" opacity="1.000000" stroke="none" 
	d="
M105.444351,45.200951 
	C100.845322,47.470402 99.073059,51.086010 99.021072,55.608044 
	C98.941040,62.569183 99.000015,69.531921 99.000015,76.744781 
	C97.329414,76.744781 95.933136,76.744781 94.257950,76.744781 
	C94.257950,64.729141 94.257950,52.651371 94.257950,40.288342 
	C95.401825,40.288342 96.600197,40.288342 97.927032,40.288342 
	C97.927032,42.081104 97.927032,43.723724 97.927032,45.073318 
	C101.363167,43.382515 104.634979,40.997448 108.270370,40.121700 
	C121.937645,36.829334 128.798599,45.782593 128.089722,55.944088 
	C127.617126,62.718567 128.000000,69.552727 128.000000,76.740639 
	C126.674080,76.816139 125.505974,76.882645 124.525726,76.938461 
	C124.000504,69.176300 123.780441,61.781593 122.936005,54.458885 
	C121.798035,44.590691 115.504997,41.278522 105.444351,45.200951 
z"/>
<path fill="#0163F9" opacity="1.000000" stroke="none" 
	d="
M204.949554,25.116833 
	C203.261230,23.716370 201.572906,22.315912 200.855316,21.720678 
	C198.253662,23.098492 195.645187,25.349955 192.857468,25.599571 
	C191.402115,25.729883 188.731186,22.538061 188.271637,20.476212 
	C187.862091,18.638727 189.218765,15.029160 190.710876,14.411402 
	C194.765335,12.732785 198.403183,14.231425 199.633041,17.503664 
	C202.078674,16.267757 204.213928,14.677178 206.591812,14.117558 
	C209.510239,13.430725 211.789734,14.705349 211.715454,18.605595 
	C209.258865,21.063704 207.104218,23.090271 204.949554,25.116833 
z"/>
<path fill="#0666FA" opacity="1.000000" stroke="none" 
	d="
M200.040421,33.121288 
	C198.663864,36.530331 197.176147,40.084190 192.511841,38.703892 
	C189.767883,37.891880 187.174759,36.122314 188.091812,32.623535 
	C188.611038,30.642504 189.676208,27.711365 191.104401,27.294561 
	C193.881912,26.483973 197.514236,26.043995 199.109772,30.747093 
	C199.527405,31.566498 199.815979,31.763048 200.104568,31.959595 
	C200.104568,31.959595 200.025238,31.965714 200.030716,32.236099 
	C200.037598,32.711418 200.039001,32.916351 200.040421,33.121288 
z"/>
<path fill="#458EFC" opacity="1.000000" stroke="none" 
	d="
M122.288025,85.665634 
	C122.243408,88.149124 121.965141,90.299461 121.686874,92.449799 
	C121.284912,92.378403 120.882942,92.306999 120.480980,92.235603 
	C121.220200,93.715996 121.959419,95.196396 122.698639,96.676796 
	C122.420334,96.982819 122.142029,97.288834 121.863716,97.594849 
	C119.668091,95.972801 117.472466,94.350746 115.229111,92.693436 
	C114.123787,94.469147 113.238556,95.891289 112.353325,97.313423 
	C111.991089,97.152039 111.628860,96.990646 111.266632,96.829254 
	C111.266632,92.102119 111.266632,87.374992 111.266632,82.218208 
	C114.578377,84.622276 119.424057,80.523560 122.288025,85.665634 
M115.172119,90.913872 
	C116.828735,90.160645 118.485352,89.407417 121.631996,87.976707 
	C118.436287,86.412079 116.583885,85.505135 113.862106,84.172546 
	C114.095253,87.251518 114.227898,89.003258 115.172119,90.913872 
z"/>
<path fill="#7EB0FC" opacity="1.000000" stroke="none" 
	d="
M228.953812,102.110489 
	C227.996155,101.105141 227.038498,100.099792 225.972672,98.980888 
	C223.529068,102.316475 221.000702,105.581779 216.366302,102.229034 
	C219.018478,99.132881 221.530533,96.504799 224.042603,93.876724 
	C224.515518,94.807068 224.988434,95.737411 225.714157,97.165108 
	C227.517105,92.204742 231.136856,91.189903 235.826248,92.904724 
	C233.658966,96.457481 231.306381,99.283981 228.953812,102.110489 
z"/>
<path fill="#1D74FA" opacity="1.000000" stroke="none" 
	d="
M224.037720,15.874655 
	C224.542526,16.824495 225.047318,17.774332 225.547806,18.716093 
	C229.782303,13.265750 231.503433,12.719469 236.729797,15.847803 
	C234.138062,19.019840 231.515686,21.534079 228.893311,24.048311 
	C227.853821,23.154915 226.814346,22.261526 225.680054,21.286661 
	C223.675049,23.402563 222.149200,27.346361 217.377319,24.659388 
	C219.405075,21.399868 221.721405,18.637260 224.037720,15.874655 
z"/>
<path fill="#0E6BFA" opacity="1.000000" stroke="none" 
	d="
M223.863297,15.529972 
	C221.721405,18.637260 219.405075,21.399868 217.046783,24.497980 
	C215.648041,23.614958 214.291245,22.396429 213.740967,21.902229 
	C210.672775,23.300835 207.988785,24.524298 205.127182,25.432299 
	C207.104218,23.090271 209.258865,21.063704 211.763763,18.995083 
	C212.681122,18.757614 213.560898,18.729185 213.767944,18.341484 
	C216.411819,13.390811 218.451660,12.712539 223.863297,15.529972 
z"/>
<path fill="#70A7FC" opacity="1.000000" stroke="none" 
	d="
M223.873352,93.527145 
	C221.530533,96.504799 219.018478,99.132881 216.197449,101.902222 
	C214.959610,101.060600 214.030731,100.077721 213.859604,99.896637 
	C210.774841,101.290245 208.039474,102.526001 205.271133,103.124817 
	C207.530884,100.642883 209.823608,98.797905 212.116333,96.952911 
	C212.686844,96.763550 213.578552,96.742455 213.779251,96.359367 
	C216.381577,91.391739 218.449936,90.699020 223.873352,93.527145 
z"/>
<path fill="#468FFC" opacity="1.000000" stroke="none" 
	d="
M153.443604,96.768524 
	C150.165527,94.254990 149.187561,91.166901 151.565704,88.278381 
	C152.735413,86.857628 155.875168,85.690506 157.416168,86.274574 
	C159.558121,87.086411 161.035767,89.650970 162.797791,91.465256 
	C162.501343,91.920906 162.204910,92.376564 161.908463,92.832222 
	C159.438065,92.832222 156.967667,92.832222 154.497269,92.832222 
	C154.501038,93.282799 154.504807,93.733383 154.508575,94.183960 
	C156.574783,94.183960 158.640991,94.183960 160.809006,94.183960 
	C158.921951,97.943748 158.375198,98.146027 153.443604,96.768524 
z"/>
<path fill="#8DB9FD" opacity="1.000000" stroke="none" 
	d="
M229.109070,102.444595 
	C231.306381,99.283981 233.658966,96.457481 236.026459,93.254898 
	C236.964554,94.108063 237.887726,95.337311 238.881348,96.660362 
	C240.399124,92.919289 243.227463,90.964569 247.796906,92.882088 
	C245.346619,95.715569 242.756805,97.859848 240.166977,100.004128 
	C239.682968,99.407547 239.198959,98.810974 238.599762,98.072418 
	C236.698471,103.427429 233.587997,104.901993 229.109070,102.444595 
z"/>
<path fill="#2B7DFB" opacity="1.000000" stroke="none" 
	d="
M229.068542,24.368893 
	C231.515686,21.534079 234.138062,19.019840 236.905380,16.193184 
	C237.550995,16.832815 238.051697,17.784864 238.704803,19.026733 
	C240.328812,15.185692 242.949661,13.135586 247.581253,14.446238 
	C245.380157,17.247974 242.773712,19.625078 240.167267,22.002182 
	C239.782761,21.493830 239.398239,20.985477 238.992691,20.449326 
	C235.895950,25.771278 233.858597,26.645163 229.068542,24.368893 
z"/>
<path fill="#6DA5FC" opacity="1.000000" stroke="none" 
	d="
M237.833099,70.005119 
	C238.311905,70.049263 239.164383,70.243263 239.215485,70.115875 
	C241.036041,65.576187 244.707291,65.558632 248.711090,66.830429 
	C246.166092,70.367752 243.562592,73.242958 240.959106,76.118179 
	C240.332260,74.901360 239.705429,73.684540 238.784363,71.896538 
	C237.209808,76.189812 234.744720,78.599205 230.275299,77.126068 
	C232.769455,74.327667 235.301270,72.166397 237.833099,70.005119 
z"/>
<path fill="#72A9FC" opacity="1.000000" stroke="none" 
	d="
M231.003250,90.835670 
	C227.884460,88.682716 224.714874,86.645714 226.981903,81.946609 
	C228.426437,78.952370 231.018234,78.338341 233.554092,79.160133 
	C235.291107,79.723053 236.547440,81.769226 237.714661,83.591599 
	C235.274872,86.299133 233.139053,88.567398 231.003250,90.835670 
z"/>
<path fill="#5294FB" opacity="1.000000" stroke="none" 
	d="
M230.959427,64.118652 
	C229.327286,61.996384 227.018997,60.058674 226.366699,57.668941 
	C226.069366,56.579632 228.787216,53.747185 230.587982,53.206833 
	C233.818253,52.237549 237.191559,52.758366 237.703217,57.598286 
	C235.255844,60.059772 233.107635,62.089214 230.959427,64.118652 
z"/>
<path fill="#468FFC" opacity="1.000000" stroke="none" 
	d="
M134.246582,96.249283 
	C128.517487,98.198746 124.252586,97.077614 124.205345,93.538269 
	C124.175034,91.267914 125.355804,88.329575 127.028168,86.905403 
	C128.250336,85.864609 132.116257,85.953026 133.091583,87.054352 
	C134.605484,88.763832 134.727722,91.749207 135.281647,94.229057 
	C135.393784,94.731102 134.802612,95.390251 134.246582,96.249283 
M127.391022,93.876640 
	C130.069504,96.482666 131.628723,94.285797 132.703247,92.288628 
	C133.017715,91.704155 131.712799,89.389305 130.833939,89.177124 
	C127.750023,88.432556 126.662598,90.239113 127.391022,93.876640 
z"/>
<path fill="#3482FB" opacity="1.000000" stroke="none" 
	d="
M191.953003,77.114670 
	C187.884521,76.511612 187.535416,73.457558 188.135178,70.455246 
	C188.457077,68.843857 189.901642,66.509071 191.204605,66.234810 
	C194.087784,65.627922 197.615036,65.090508 198.749603,69.711304 
	C196.316101,72.527161 194.134552,74.820915 191.953003,77.114670 
z"/>
<path fill="#3F89FB" opacity="1.000000" stroke="none" 
	d="
M192.140671,77.441025 
	C194.134552,74.820915 196.316101,72.527161 198.805389,70.090088 
	C199.677551,70.122063 200.241959,70.297363 200.806366,70.472672 
	C201.660019,64.733612 205.889908,65.975082 209.695953,66.858109 
	C207.158829,70.044319 204.556168,72.577187 201.953506,75.110062 
	C201.449860,74.182587 200.946198,73.255119 201.135406,73.603546 
	C198.130997,75.023987 195.229660,76.395683 192.140671,77.441025 
z"/>
<path fill="#64A0FC" opacity="1.000000" stroke="none" 
	d="
M212.067169,96.563461 
	C209.823608,98.797905 207.530884,100.642883 205.093414,102.797768 
	C203.631180,101.686798 202.313690,100.265930 200.981384,98.172722 
	C200.963806,97.295074 200.961029,97.089752 200.958237,96.884430 
	C202.336060,95.258430 203.462860,92.655708 205.147339,92.222763 
	C208.077042,91.469780 211.472748,91.853981 212.067169,96.563461 
z"/>
<path fill="#5E9CFC" opacity="1.000000" stroke="none" 
	d="
M231.132935,64.438309 
	C233.107635,62.089214 235.255844,60.059772 237.759766,57.977962 
	C240.612335,54.096504 243.827682,51.861694 248.706421,53.838230 
	C246.163956,57.368141 243.559601,60.240379 240.955231,63.112617 
	C240.329147,61.897160 239.703064,60.681698 239.556091,60.396374 
	C236.670959,61.921738 233.988693,63.339848 231.132935,64.438309 
z"/>
<path fill="#2378FA" opacity="1.000000" stroke="none" 
	d="
M191.948181,64.118271 
	C187.898712,63.502022 187.531342,60.460197 188.134430,57.457108 
	C188.457733,55.847179 189.898956,53.523594 191.206787,53.241306 
	C194.091034,52.618759 197.606384,52.099171 198.748932,56.708050 
	C196.314651,59.527084 194.131409,61.822678 191.948181,64.118271 
z"/>
<path fill="#7EB0FC" opacity="1.000000" stroke="none" 
	d="
M231.379120,90.906693 
	C233.139053,88.567398 235.274872,86.299133 237.767883,83.981094 
	C240.607544,80.071732 243.843048,77.875854 248.712677,79.828461 
	C246.165985,83.367386 243.562500,86.242508 240.959015,89.117630 
	C240.332184,87.899605 239.705368,86.681580 239.422455,86.131836 
	C236.781067,87.801208 234.268021,89.389465 231.379120,90.906693 
z"/>
<path fill="#2F7FFB" opacity="1.000000" stroke="none" 
	d="
M192.136246,64.444427 
	C194.131409,61.822678 196.314651,59.527084 198.804764,57.086143 
	C199.676361,57.115211 200.241104,57.289627 200.805832,57.464043 
	C201.655228,51.714764 205.891846,52.980495 209.693726,53.857430 
	C206.896896,56.673950 204.032181,58.838306 201.167450,61.002663 
	C200.484238,60.898945 199.206253,60.684132 199.201950,60.707218 
	C198.452484,64.719566 195.630692,65.146080 192.136246,64.444427 
z"/>
<path fill="#458EFC" opacity="1.000000" stroke="none" 
	d="
M171.367462,86.179230 
	C172.782990,89.691177 173.777115,93.066376 174.771225,96.441566 
	C173.863388,96.694168 172.955551,96.946762 172.047714,97.199364 
	C171.535858,94.649933 171.024017,92.100502 170.462921,89.305840 
	C163.476257,87.285042 168.247940,96.588669 163.314026,97.448830 
	C163.314026,93.469818 163.314026,90.072472 163.314026,86.042473 
	C165.779190,86.042473 168.362610,86.042473 171.367462,86.179230 
z"/>
<path fill="#458EFC" opacity="1.000000" stroke="none" 
	d="
M147.696671,86.545746 
	C147.928436,90.082108 147.928436,93.224815 147.928436,96.421219 
	C145.960037,96.927628 143.967255,98.078445 142.352783,97.683365 
	C140.598068,97.253975 138.401306,95.673286 137.827591,94.079659 
	C136.999298,91.778893 137.435074,89.014153 137.447830,86.447960 
	C137.448425,86.329659 138.906525,85.921631 139.128754,86.162498 
	C139.608994,86.682999 139.795303,87.520515 139.980682,88.258774 
	C140.559189,90.562523 141.081299,92.880440 141.625290,95.192871 
	C142.416290,95.167671 143.207306,95.142471 143.998306,95.117264 
	C144.332184,93.272964 144.694992,91.433289 144.991089,89.582939 
	C145.243408,88.006073 144.153717,85.508247 147.696671,86.545746 
z"/>
<path fill="#619EFC" opacity="1.000000" stroke="none" 
	d="
M237.898788,69.750748 
	C235.301270,72.166397 232.769455,74.327667 230.093704,76.796814 
	C227.013260,74.927818 224.674866,72.448486 227.131485,68.600670 
	C229.691055,64.591599 233.201935,65.738907 236.922455,67.767387 
	C237.320129,68.627892 237.542755,68.847038 237.845764,68.984543 
	C237.885330,69.155151 237.924911,69.325760 237.898788,69.750748 
z"/>
<path fill="#98C0FD" opacity="1.000000" stroke="none" 
	d="
M240.098694,100.377838 
	C242.756805,97.859848 245.346619,95.715569 247.988586,93.228539 
	C251.914291,93.194466 251.448853,96.330589 250.827560,98.380997 
	C250.225082,100.369385 248.352188,103.145164 246.739197,103.362396 
	C244.657898,103.642693 242.280365,101.723518 240.098694,100.377838 
z"/>
<path fill="#3683FB" opacity="1.000000" stroke="none" 
	d="
M240.212540,22.361948 
	C242.773712,19.625078 245.380157,17.247974 247.991913,14.512872 
	C251.918533,15.446568 251.508560,18.903879 250.767242,21.503981 
	C250.259598,23.284451 247.839355,25.519207 246.103683,25.677061 
	C244.259903,25.844751 242.214935,23.800217 240.212540,22.361948 
z"/>
<path fill="#E0ECFE" opacity="1.000000" stroke="none" 
	d="
M300.879272,106.533630 
	C298.552216,109.577530 296.066040,112.268272 293.227020,114.999695 
	C290.204193,112.324417 289.953674,108.640518 292.463013,106.623444 
	C294.207123,105.221458 297.898651,106.242134 300.879272,106.533630 
z"/>
<path fill="#3F89FB" opacity="1.000000" stroke="none" 
	d="
M242.003586,37.833740 
	C240.905441,36.306236 239.807281,34.778732 238.371033,32.875984 
	C238.037888,32.288647 238.042862,32.076550 238.047836,31.864450 
	C241.097595,27.989687 244.340393,24.727118 249.733566,28.846218 
	C247.176895,32.280064 244.590240,35.056904 242.003586,37.833740 
z"/>
<path fill="#5094FB" opacity="1.000000" stroke="none" 
	d="
M238.045746,44.874294 
	C241.090668,40.983246 244.338318,37.733566 249.733795,41.847099 
	C247.176117,45.281380 244.589951,48.057514 242.003784,50.833649 
	C240.905701,49.302486 239.807632,47.771328 238.371674,45.870682 
	C238.037766,45.292229 238.041748,45.083260 238.045746,44.874294 
z"/>
<path fill="#4B90FB" opacity="1.000000" stroke="none" 
	d="
M202.104645,75.435593 
	C204.556168,72.577187 207.158829,70.044319 209.905060,67.202423 
	C213.498108,69.417847 213.674698,72.200867 211.021820,75.521698 
	C208.091064,79.190392 205.247910,78.329048 202.104645,75.435593 
z"/>
<path fill="#6DA5FC" opacity="1.000000" stroke="none" 
	d="
M279.855316,37.047783 
	C277.912476,34.639263 276.852722,32.163925 279.157867,29.355822 
	C281.449097,26.564623 284.178345,26.216732 287.601044,28.330868 
	C285.226868,31.582760 282.541107,34.315269 279.855316,37.047783 
z"/>
<path fill="#3985FB" opacity="1.000000" stroke="none" 
	d="
M201.203308,61.350182 
	C204.032181,58.838306 206.896896,56.673950 209.905609,54.199699 
	C212.963348,56.675182 213.942627,59.619465 210.670364,62.809681 
	C207.095856,66.294594 204.052902,64.872185 201.203308,61.350182 
z"/>
<path fill="#8EBAFD" opacity="1.000000" stroke="none" 
	d="
M279.882965,63.047600 
	C277.346008,60.045719 276.802429,57.020748 280.205780,54.342438 
	C283.290680,51.914761 286.311951,52.292328 288.736633,55.696053 
	C285.610840,58.497108 282.746887,60.772354 279.882965,63.047600 
z"/>
<path fill="#78ACFC" opacity="1.000000" stroke="none" 
	d="
M241.134308,76.445404 
	C243.562592,73.242958 246.166092,70.367752 248.911911,67.180191 
	C252.291977,69.190979 251.669479,72.589844 250.175720,75.045067 
	C248.217865,78.263092 244.804565,78.923218 241.134308,76.445404 
z"/>
<path fill="#88B6FD" opacity="1.000000" stroke="none" 
	d="
M241.132538,89.446426 
	C243.562500,86.242508 246.165985,83.367386 248.911255,80.179680 
	C252.301941,82.188515 251.660812,85.585289 250.177628,88.047417 
	C248.219131,91.298576 244.795364,91.883896 241.132538,89.446426 
z"/>
<path fill="#2378FA" opacity="1.000000" stroke="none" 
	d="
M200.042496,44.839153 
	C202.808273,39.411949 205.428802,38.534248 210.648651,41.785774 
	C208.012833,44.917549 205.484955,47.514198 202.957092,50.110844 
	C202.204254,48.839279 201.451416,47.567719 200.363617,45.893967 
	C200.033264,45.274239 200.037872,45.056698 200.042496,44.839153 
z"/>
<path fill="#67A2FC" opacity="1.000000" stroke="none" 
	d="
M241.131561,63.439220 
	C243.559601,60.240379 246.163956,57.368141 248.909790,54.185501 
	C252.297318,56.194168 251.662872,59.587765 250.175110,62.047215 
	C248.214111,65.289001 244.797104,65.899750 241.131561,63.439220 
z"/>
<path fill="#9EC4FD" opacity="1.000000" stroke="none" 
	d="
M279.879181,76.047310 
	C277.886536,73.649170 276.853699,71.171112 279.157837,68.358864 
	C281.447937,65.563744 284.178558,65.201416 287.747559,67.168365 
	C288.366150,67.739777 288.579315,67.895996 288.840912,67.986137 
	C288.893982,68.146233 288.947021,68.306328 288.708191,68.752396 
	C285.570587,71.374687 282.724884,73.710999 279.879181,76.047310 
z"/>
<path fill="#CEE1FE" opacity="1.000000" stroke="none" 
	d="
M300.636292,92.984283 
	C298.501312,96.028145 296.000854,98.895554 293.190552,101.904434 
	C290.408051,99.537636 289.867310,96.077766 292.229248,94.071640 
	C293.994293,92.572525 297.525848,93.153244 300.636292,92.984283 
z"/>
<path fill="#8DB9FD" opacity="1.000000" stroke="none" 
	d="
M300.641144,40.988148 
	C298.501709,44.033604 295.999634,46.898472 293.187286,49.904564 
	C292.586182,47.394630 291.262482,44.244835 292.245453,42.208630 
	C293.737671,39.117615 297.221161,39.308022 300.641144,40.988148 
z"/>
<path fill="#126DFA" opacity="1.000000" stroke="none" 
	d="
M189.955154,50.112213 
	C186.731873,47.752426 187.311432,44.369884 188.876068,41.881916 
	C191.103180,38.340527 194.601547,40.022793 197.713837,41.873207 
	C195.158997,45.045601 192.557068,47.578903 189.955154,50.112213 
z"/>
<path fill="#AFCEFD" opacity="1.000000" stroke="none" 
	d="
M279.870728,89.049683 
	C277.885651,86.649963 276.857727,84.170601 279.156006,81.362488 
	C281.439178,78.572861 284.166595,78.205574 287.596191,80.323921 
	C285.231934,83.574425 282.551331,86.312057 279.870728,89.049683 
z"/>
<path fill="#C0D8FE" opacity="1.000000" stroke="none" 
	d="
M279.875244,102.048615 
	C277.891479,99.655563 276.844727,97.180382 279.145477,94.372444 
	C281.428955,91.585594 284.158600,91.197556 287.598389,93.319580 
	C285.236847,96.566681 282.556030,99.307648 279.875244,102.048615 
z"/>
<path fill="#5E9CFC" opacity="1.000000" stroke="none" 
	d="
M279.865326,24.053963 
	C277.909546,21.647078 276.859802,19.167967 279.158325,16.358271 
	C281.445831,13.562044 284.179047,13.222262 287.604309,15.322254 
	C285.234192,18.573626 282.549744,21.313793 279.865326,24.053963 
z"/>
<path fill="#1770FA" opacity="1.000000" stroke="none" 
	d="
M228.047089,10.372839 
	C230.735550,7.710641 233.578964,5.373569 236.774429,2.994316 
	C239.223129,5.979576 238.905945,8.810161 236.211502,11.238387 
	C233.433884,13.741581 230.716965,13.189578 228.047089,10.372839 
z"/>
<path fill="#7CAFFC" opacity="1.000000" stroke="none" 
	d="
M300.638672,27.980568 
	C298.292633,30.770155 295.584137,33.380657 292.520996,35.997295 
	C292.138885,33.552402 291.167145,29.724762 292.291748,28.953371 
	C294.280792,27.589045 297.545410,28.084436 300.638672,27.980568 
z"/>
<path fill="#5294FB" opacity="1.000000" stroke="none" 
	d="
M200.044312,83.846924 
	C202.837662,78.277313 204.546555,77.706375 210.613525,80.762321 
	C207.976547,83.871445 205.465698,86.491875 202.954834,89.112305 
	C202.204742,87.834023 201.454651,86.555740 200.368027,84.883636 
	C200.035767,84.275513 200.040039,84.061218 200.044312,83.846924 
z"/>
<path fill="#AFCEFD" opacity="1.000000" stroke="none" 
	d="
M300.637878,66.984802 
	C298.294281,69.771744 295.586151,72.381584 292.523468,74.997551 
	C292.192505,72.487411 291.235168,68.739067 292.475708,67.751396 
	C294.219818,66.362808 297.595428,67.023430 300.637878,66.984802 
z"/>
<path fill="#6DA5FC" opacity="1.000000" stroke="none" 
	d="
M300.640564,14.986069 
	C298.291901,17.775192 295.582031,20.382717 292.517395,22.995850 
	C292.138550,20.551594 291.171478,16.728033 292.298218,15.954572 
	C294.285339,14.590488 297.549713,15.086936 300.640564,14.986069 
z"/>
<path fill="#BED7FE" opacity="1.000000" stroke="none" 
	d="
M300.638916,79.988174 
	C298.284576,82.750824 295.566040,85.334282 292.506409,87.960220 
	C292.189087,85.484734 291.231628,81.732605 292.472778,80.745781 
	C294.218292,79.357964 297.595398,80.022255 300.638916,79.988174 
z"/>
<path fill="#7EB0FC" opacity="1.000000" stroke="none" 
	d="
M279.159912,48.999802 
	C279.266083,46.674873 278.635803,43.942383 279.645691,42.117630 
	C281.284882,39.155846 284.395996,39.351032 287.603577,41.325752 
	C284.998840,44.224834 282.079376,46.612316 279.159912,48.999802 
z"/>
<path fill="#5497FC" opacity="1.000000" stroke="none" 
	d="
M189.955902,102.112671 
	C186.749634,99.584595 186.895462,95.746254 189.210541,93.820427 
	C190.989456,92.340614 194.834976,93.345093 197.623657,93.749023 
	C194.975861,96.873055 192.465881,99.492859 189.955902,102.112671 
z"/>
<path fill="#3F89FB" opacity="1.000000" stroke="none" 
	d="
M228.954056,50.113312 
	C226.147812,48.142349 225.186462,45.633099 227.127609,42.601402 
	C229.187592,39.384117 232.094772,39.253456 235.603790,41.318691 
	C233.596176,44.591885 231.275116,47.352600 228.954056,50.113312 
z"/>
<path fill="#2F7FFB" opacity="1.000000" stroke="none" 
	d="
M228.953949,37.113426 
	C226.152161,35.140400 225.192001,32.631702 227.130173,29.600430 
	C229.188843,26.380688 232.096176,26.259594 235.603012,28.316322 
	C233.595718,31.590420 231.274826,34.351925 228.953949,37.113426 
z"/>
<path fill="#116CFA" opacity="1.000000" stroke="none" 
	d="
M200.368820,33.203522 
	C200.039001,32.916351 200.037598,32.711418 200.045410,32.199131 
	C202.782166,26.420933 205.419083,25.524275 210.625732,28.745087 
	C207.981323,31.862602 205.468536,34.487442 202.955734,37.112289 
	C202.202896,35.836777 201.450058,34.561264 200.368820,33.203522 
z"/>
<path fill="#438BFB" opacity="1.000000" stroke="none" 
	d="
M189.954727,89.113686 
	C186.750687,86.583549 186.894211,82.746002 189.211563,80.818314 
	C190.989639,79.339226 194.834717,80.344963 197.627228,80.741425 
	C194.980881,83.862724 192.467804,86.488205 189.954727,89.113686 
z"/>
<path fill="#4B90FB" opacity="1.000000" stroke="none" 
	d="
M190.133362,89.437996 
	C192.467804,86.488205 194.980881,83.862724 197.802719,81.095085 
	C198.682480,81.727066 199.253464,82.501205 199.934387,83.561134 
	C200.040039,84.061218 200.035767,84.275513 200.035492,84.811310 
	C197.363708,91.297646 195.846954,92.019493 190.133362,89.437996 
z"/>
<path fill="#5C9AFC" opacity="1.000000" stroke="none" 
	d="
M190.132706,102.438828 
	C192.465881,99.492859 194.975861,96.873055 197.798050,94.103424 
	C198.850449,94.902664 199.590622,95.851730 200.644516,96.842621 
	C200.961029,97.089752 200.963806,97.295074 200.961700,97.808357 
	C200.432526,98.459801 199.668839,98.680740 199.420670,99.165565 
	C196.721298,104.439217 195.560349,104.922165 190.132706,102.438828 
z"/>
<path fill="#88B6FD" opacity="1.000000" stroke="none" 
	d="
M279.194519,49.364578 
	C282.079376,46.612316 284.998840,44.224834 287.961182,41.503555 
	C290.745758,43.726437 291.064331,46.827995 288.804260,49.539604 
	C285.952087,52.961624 282.487274,52.814671 279.194519,49.364578 
z"/>
<path fill="#67A2FC" opacity="1.000000" stroke="none" 
	d="
M280.046143,24.387356 
	C282.549744,21.313793 285.234192,18.573626 287.961029,15.500564 
	C290.648682,17.535545 290.971497,20.545660 289.106110,23.201195 
	C286.892792,26.352116 283.652374,26.918358 280.046143,24.387356 
z"/>
<path fill="#C7DCFE" opacity="1.000000" stroke="none" 
	d="
M280.045654,102.390099 
	C282.556030,99.307648 285.236847,96.566681 287.959229,93.492035 
	C290.648987,95.519722 291.005798,98.542625 289.124664,101.187355 
	C286.912720,104.297211 283.669586,104.997124 280.045654,102.390099 
z"/>
<path fill="#1A72FA" opacity="1.000000" stroke="none" 
	d="
M203.129181,37.426857 
	C205.468536,34.487442 207.981323,31.862602 210.802979,29.095650 
	C212.999619,31.704985 213.369827,34.323875 210.657364,36.858597 
	C208.378738,38.987934 205.999954,39.489914 203.129181,37.426857 
z"/>
<path fill="#B7D3FE" opacity="1.000000" stroke="none" 
	d="
M280.036163,89.394196 
	C282.551331,86.312057 285.231934,83.574425 287.956238,80.497299 
	C290.657257,82.520264 290.987183,85.545677 289.122437,88.193245 
	C286.908844,91.336052 283.652924,91.965805 280.036163,89.394196 
z"/>
<path fill="#478EFB" opacity="1.000000" stroke="none" 
	d="
M229.124329,50.431313 
	C231.275116,47.352600 233.596176,44.591885 235.959152,41.498573 
	C236.669113,42.171947 237.337173,43.177917 238.025482,44.529091 
	C238.041748,45.083260 238.037766,45.292229 238.039917,45.814651 
	C237.063431,51.230469 234.162308,52.762409 229.124329,50.431313 
z"/>
<path fill="#3683FB" opacity="1.000000" stroke="none" 
	d="
M229.125641,37.430241 
	C231.274826,34.351925 233.595718,31.590420 235.957962,28.496201 
	C236.668427,29.167706 237.337524,30.171930 238.027222,31.520302 
	C238.042862,32.076550 238.037888,32.288647 238.040482,32.818924 
	C237.051086,38.236465 234.156723,39.761250 229.125641,37.430241 
z"/>
<path fill="#1A72FA" opacity="1.000000" stroke="none" 
	d="
M190.137192,50.433250 
	C192.557068,47.578903 195.158997,45.045601 197.905518,42.202721 
	C198.634430,42.683830 199.218750,43.474506 199.922775,44.552170 
	C200.037872,45.056698 200.033264,45.274239 200.034210,45.818176 
	C197.359894,52.290634 195.827393,53.017387 190.137192,50.433250 
z"/>
<path fill="#5497FC" opacity="1.000000" stroke="none" 
	d="
M280.054016,11.385498 
	C282.724915,8.713563 285.570801,6.376412 288.768616,3.999404 
	C288.943268,6.281898 289.552765,9.143233 288.413361,10.806478 
	C286.465912,13.649252 283.226807,13.680655 280.054016,11.385498 
z"/>
<path fill="#A6C9FD" opacity="1.000000" stroke="none" 
	d="
M280.049194,76.387817 
	C282.724884,73.710999 285.570587,71.374687 288.768005,68.998215 
	C288.941925,71.282906 289.554138,74.153099 288.409851,75.810837 
	C286.462463,78.631966 283.222321,78.714432 280.049194,76.387817 
z"/>
<path fill="#5C9AFC" opacity="1.000000" stroke="none" 
	d="
M203.128601,89.435013 
	C205.465698,86.491875 207.976547,83.871445 210.799377,81.101654 
	C213.366165,83.972382 212.941528,86.516304 210.337860,89.303299 
	C207.891602,91.921776 205.722443,90.902222 203.128601,89.435013 
z"/>
<path fill="#78ACFC" opacity="1.000000" stroke="none" 
	d="
M280.036682,37.382183 
	C282.541107,34.315269 285.226868,31.582760 287.958252,28.509003 
	C290.647156,30.537725 290.979492,33.551380 289.106049,36.205486 
	C286.888550,39.347065 283.648987,39.951645 280.036682,37.382183 
z"/>
<path fill="#96BFFD" opacity="1.000000" stroke="none" 
	d="
M280.053772,63.386715 
	C282.746887,60.772354 285.610840,58.497108 288.792908,56.086945 
	C288.938110,58.276245 289.551147,61.133087 288.417358,62.806210 
	C286.469086,65.681320 283.225372,65.668747 280.053772,63.386715 
z"/>
<path fill="#458EFC" opacity="1.000000" stroke="none" 
	d="
M267.050293,11.383686 
	C269.588837,8.236077 272.302490,5.423218 275.032623,2.233152 
	C277.272614,4.573524 278.219238,7.593896 275.847107,10.533094 
	C273.513031,13.425130 270.431152,13.722047 267.050293,11.383686 
z"/>
<path fill="#2B7DFB" opacity="1.000000" stroke="none" 
	d="
M203.128906,50.426777 
	C205.484955,47.514198 208.012833,44.917549 210.824860,42.136902 
	C212.993088,44.703411 213.372940,47.318756 210.658508,49.859371 
	C208.375412,51.996243 205.998962,52.489655 203.128906,50.426777 
z"/>
<path fill="#478EFB" opacity="1.000000" stroke="none" 
	d="
M242.348038,38.004311 
	C244.590240,35.056904 247.176895,32.280064 249.907883,29.192211 
	C249.918869,31.543255 250.602966,34.715641 249.369720,36.691048 
	C248.523346,38.046787 245.012390,37.739044 242.348038,38.004311 
z"/>
<path fill="#5798FB" opacity="1.000000" stroke="none" 
	d="
M242.348633,51.003601 
	C244.589951,48.057514 247.176117,45.281380 249.906433,42.194370 
	C249.918091,44.544933 250.603256,47.716774 249.370590,49.691441 
	C248.524567,51.046722 245.013351,50.738297 242.348633,51.003601 
z"/>
<path fill="#116CFA" opacity="1.000000" stroke="none" 
	d="
M200.014435,31.704611 
	C199.815979,31.763048 199.527405,31.566498 199.137665,31.122917 
	C199.332428,31.067133 199.628372,31.258379 200.014435,31.704611 
z"/>
<path fill="#A6C9FD" opacity="1.000000" stroke="none" 
	d="
M288.882019,67.722244 
	C288.579315,67.895996 288.366150,67.739777 288.109863,67.338928 
	C288.319946,67.259697 288.621552,67.359016 288.882019,67.722244 
z"/>
<path fill="#6DA5FC" opacity="1.000000" stroke="none" 
	d="
M237.879089,68.716888 
	C237.542755,68.847038 237.320129,68.627892 237.108246,68.099144 
	C237.329880,68.063858 237.621140,68.256546 237.879089,68.716888 
z"/>
</svg>